HIERARCHY
ROOT root
{
	OFFSET 0.000000 0.000000 0.000000
	CHANNELS 6 Xposition Yposition Zposition Zrotation Yrotation Xrotation
	JOINT lhip
	{
		OFFSET 0.058581 -0.082280 -0.017664
		CHANNELS 3 Zrotation Yrotation Xrotation
		JOINT lknee
		{
			OFFSET 0.043451 -0.386469 0.008037
			CHANNELS 3 Zrotation Yrotation Xrotation
			JOINT lankle
			{
				OFFSET -0.014790 -0.426874 -0.037428
				CHANNELS 3 Zrotation Yrotation Xrotation
				JOINT ltoe
				{
					OFFSET 0.041054 -0.060286 0.122042
					CHANNELS 3 Zrotation Yrotation Xrotation
					End Site
					{
						OFFSET 0.000000 0.000000 0.000000
					}
				}
			}
		}
	}
	JOINT rhip
	{
		OFFSET -0.060310 -0.090513 -0.013543
		CHANNELS 3 Zrotation Yrotation Xrotation
		JOINT rknee
		{
			OFFSET -0.043257 -0.383688 -0.004843
			CHANNELS 3 Zrotation Yrotation Xrotation
			JOINT rankle
			{
				OFFSET 0.019056 -0.420046 -0.034562
				CHANNELS 3 Zrotation Yrotation Xrotation
				JOINT rtoe
				{
					OFFSET -0.034840 -0.062106 0.130323
					CHANNELS 3 Zrotation Yrotation Xrotation
					End Site
					{
						OFFSET 0.000000 0.000000 0.000000
					}
				}
			}
		}
	}
	JOINT lowerback
	{
		OFFSET 0.004439 0.124404 -0.038385
		CHANNELS 3 Zrotation Yrotation Xrotation
		JOINT upperback
		{
			OFFSET 0.004488 0.137956 0.026820
			CHANNELS 3 Zrotation Yrotation Xrotation
			JOINT chest
			{
				OFFSET -0.002265 0.056032 0.002855
				CHANNELS 3 Zrotation Yrotation Xrotation
				JOINT lowerneck
				{
					OFFSET -0.013390 0.211636 -0.033468
					CHANNELS 3 Zrotation Yrotation Xrotation
					JOINT upperneck
					{
						OFFSET 0.010113 0.088937 0.050410
						CHANNELS 3 Zrotation Yrotation Xrotation
						End Site
						{
							OFFSET 0.000000 0.000000 0.000000
						}
					}
				}
				JOINT lclavicle
				{
					OFFSET 0.071702 0.114000 -0.018898
					CHANNELS 3 Zrotation Yrotation Xrotation
					JOINT lshoulder
					{
						OFFSET 0.122921 0.045205 -0.019046
						CHANNELS 3 Zrotation Yrotation Xrotation
						JOINT lelbow
						{
							OFFSET 0.255332 -0.015649 -0.022946
							CHANNELS 3 Zrotation Yrotation Xrotation
							JOINT lwrist
							{
								OFFSET 0.265709 0.012698 -0.007375
								CHANNELS 3 Zrotation Yrotation Xrotation
								End Site
								{
									OFFSET 0.000000 0.000000 0.000000
								}
							}
						}
					}
				}
				JOINT rclavicle
				{
					OFFSET -0.082954 0.112472 -0.023707
					CHANNELS 3 Zrotation Yrotation Xrotation
					JOINT rshoulder
					{
						OFFSET -0.113228 0.046853 -0.008472
						CHANNELS 3 Zrotation Yrotation Xrotation
						JOINT relbow
						{
							OFFSET -0.260127 -0.014369 -0.031269
							CHANNELS 3 Zrotation Yrotation Xrotation
							JOINT rwrist
							{
								OFFSET -0.269108 0.006794 -0.006027
								CHANNELS 3 Zrotation Yrotation Xrotation
								End Site
								{
									OFFSET 0.000000 0.000000 0.000000
								}
							}
						}
					}
				}
			}
		}
	}
}
MOTION
Frames: 8
Frame Time: 0.033333
0.227551 0.226261 0.772788 -179.261278 -8.163265 114.146256 5.099189 -6.658689 -84.425344 -13.333793 19.587664 65.470222 10.174765 -2.525311 -15.881695 0.000000 -0.000000 0.000000 -15.418408 -7.313580 -21.926810 13.219972 0.209655 70.394904 1.748174 11.162197 -34.367710 0.000000 -0.000000 0.000000 7.573108 9.941646 40.439220 -8.022878 -2.763726 7.544471 0.571854 6.782581 -4.725787 -8.206456 -14.062555 -7.197494 11.148206 -3.052275 -44.081548 -21.606355 -19.134580 2.428014 -51.396416 18.928478 11.635848 11.830145 -46.707797 -3.176179 -9.324454 -20.683512 -0.794428 9.569263 41.765551 8.406079 3.946488 29.560592 -18.220327 -8.114343 24.804484 -11.620376 0.509697 21.444474 3.008366 
0.221878 0.231454 0.793777 177.238876 -6.404766 113.909396 5.817466 -6.539476 -81.345093 -12.401603 17.422697 63.318561 9.653580 -0.882316 -15.804233 0.000000 -0.000000 0.000000 -15.303688 -7.126109 -19.833272 12.353064 1.053095 64.583371 1.863411 9.628563 -34.020889 0.000000 -0.000000 0.000000 7.025705 10.561411 37.756930 -7.624583 -2.419073 7.489836 0.596268 6.558314 -4.184634 -8.146432 -13.421251 -8.098604 11.317460 -3.900111 -43.300672 -21.593068 -18.473777 2.429327 -50.698000 17.913259 11.638150 13.134235 -48.254630 -3.711796 -8.019819 -20.847459 -1.416723 10.773218 40.220678 8.033255 9.038341 28.299516 -15.096190 -9.094054 31.549472 -12.417303 -0.188099 21.987466 -1.242961 
0.216355 0.237096 0.814364 173.371340 -4.542380 113.392196 6.638490 -6.357220 -78.012672 -11.306129 15.342199 61.251635 9.153990 0.944087 -15.723467 0.000000 -0.000000 0.000000 -15.383536 -7.075099 -17.541645 11.438452 1.506852 58.637749 2.304645 8.404212 -32.625381 0.000000 -0.000000 0.000000 6.471643 10.857148 34.999279 -7.261681 -2.218822 7.701805 0.388064 6.462868 -3.946124 -7.844378 -12.383715 -8.838769 11.263410 -4.862091 -42.393733 -21.238752 -17.450674 2.284776 -50.095397 16.672628 11.449320 14.654443 -49.674837 -5.029351 -6.676129 -21.217563 -2.134538 12.050273 38.647208 7.997860 14.070195 26.838957 -12.002970 -10.357166 37.444497 -11.778280 -0.512245 22.469624 -2.897198 
0.210871 0.242733 0.834119 169.023335 -2.534417 112.723165 7.590344 -5.929776 -74.613575 -9.918997 13.539243 59.399891 8.611161 2.632449 -15.609099 0.000000 -0.000000 0.000000 -15.712713 -7.336410 -15.632645 10.572391 1.344826 53.193314 3.265993 7.862285 -30.064037 0.000000 -0.000000 0.000000 5.976726 10.848753 32.389480 -7.006336 -2.088849 7.350985 -0.042295 6.502172 -3.651045 -7.374735 -10.913012 -9.040967 11.173861 -5.730046 -41.642037 -20.653673 -16.089946 1.948789 -49.414759 15.438919 11.189399 16.342977 -50.800211 -6.704572 -5.569675 -21.804235 -2.663976 13.457566 36.937749 8.148647 18.814485 25.173849 -9.243304 -11.147558 42.266928 -9.926922 -0.154483 23.015359 -2.567723 
0.206418 0.247612 0.852692 164.075979 -0.375422 111.818570 8.640906 -4.774144 -71.090989 -8.645900 12.038694 57.740573 7.907188 4.163736 -15.415225 0.000000 -0.000000 0.000000 -16.162576 -7.934657 -14.325719 9.626756 0.431957 48.539423 4.906054 7.083051 -26.741245 0.000000 -0.000000 0.000000 5.425395 10.772161 29.806047 -6.708171 -1.831439 6.703288 -0.334525 6.594759 -3.144158 -7.059467 -9.481317 -8.798493 11.141988 -6.554098 -41.021572 -20.270971 -14.770194 1.664473 -48.397574 14.309537 10.773305 18.128971 -51.672822 -8.653581 -3.723934 -22.348132 -3.848949 14.248424 35.350451 8.156415 23.058408 23.276419 -7.253652 -11.014676 46.091401 -8.196622 -0.946289 23.060032 -3.829089 
0.202493 0.251214 0.869783 158.893479 1.614904 110.538527 9.466355 -3.277360 -67.331697 -7.650616 10.706064 56.091594 7.050876 5.744755 -15.132665 0.000000 -0.000000 0.000000 -16.700457 -9.299169 -13.333964 8.212977 -1.931352 44.372130 6.561634 4.654608 -23.737540 0.000000 -0.000000 0.000000 4.984242 10.761419 27.450325 -6.318291 -1.414645 5.883182 -0.295543 6.472197 -2.264122 -6.926891 -8.612561 -8.554886 11.145874 -7.219695 -40.352299 -20.257642 -14.074402 1.700920 -47.185103 13.106777 9.986913 20.039447 -52.062479 -10.591053 -1.674025 -22.445200 -4.128389 14.265494 33.818567 7.571720 26.481236 20.937000 -6.090750 -9.992814 49.322483 -6.791908 -1.739310 22.475634 -6.773559 
0.199310 0.253009 0.885126 153.577816 3.321083 109.088298 10.084880 -1.437392 -63.482312 -6.786748 9.546509 54.273277 5.944498 7.120191 -14.848261 0.000000 -0.000000 0.000000 -17.070551 -11.217399 -12.730466 6.743979 -5.843600 40.329979 7.429367 1.407562 -22.479924 0.000000 -0.000000 0.000000 4.644338 10.383378 25.655021 -6.131178 -1.176285 4.470091 -0.293228 6.293211 -1.335828 -6.797305 -7.689641 -8.119874 11.193735 -7.603517 -39.523566 -20.108378 -13.373016 1.641710 -45.667179 12.156048 9.109578 21.827995 -51.925316 -12.500716 0.067866 -22.770154 -4.614311 14.242024 32.542554 6.837062 29.091914 18.650109 -5.284452 -8.636071 51.643234 -4.956469 -2.486736 22.153370 -8.967664 
0.196791 0.252938 0.898714 148.209632 4.604502 107.346926 10.571258 0.241593 -59.280276 -6.061427 8.370236 51.957209 5.058949 8.762858 -14.570470 0.000000 -0.000000 0.000000 -17.159685 -13.314094 -12.050509 6.082877 -9.838235 36.006590 7.873330 -1.042279 -20.977649 0.000000 -0.000000 0.000000 4.185043 10.395042 23.842561 -5.661154 -0.700925 4.519960 -0.183546 5.592536 -1.187426 -6.398323 -7.081927 -8.071675 10.912140 -8.106459 -38.380077 -20.071440 -13.073618 1.688100 -44.031672 10.956534 8.295561 23.575474 -51.189786 -14.113285 1.684538 -23.057526 -4.228941 13.748064 31.095860 5.534588 30.777474 16.444762 -4.620259 -7.344561 53.223236 -2.944723 -3.668140 22.265363 -9.938345 
